<svg xmlns="http://www.w3.org/2000/svg" viewBox="0 0 196 196" width="196" height="196">
    <circle cx="98" cy="98" r="98" fill="#307fec"/>
    <path d="M0 0C9.14866886.037533 17.22012512 2.42754171 25.875 5.3125 25.24816224 9.20323238 24.06490291 12.41180682 22.40625 15.98046875 21.91769531 17.03814453 21.42914063 18.09582031 20.92578125 19.18554688 20.41402344 20.27931641 19.90226562 21.37308594 19.375 22.5 18.86324219 23.60537109 18.35148437 24.71074219 17.82421875 25.84960938 14.22879464 33.60491071 14.22879464 33.60491071 12.875 36.3125c6.6.0 13.2.0 20 0-2.74311757 8.2293527-5.81983443 14.5072504-10 22-6.6.0-13.2.0-20 0-.66 1.98-1.32 3.96-2 6C-.30574675 66.89295828-1.51012196 69.4485972-2.75 72-7.20837762 81.30592927-11.1713474 90.78137319-15.125 100.3125c-11.55.0-23.1.0-35 0 1.12511809-6.75070855 1.12511809-6.75070855 2.92578125-10.4609375C-46.81443359 89.04976563-46.42964844 88.24796875-46.03320312 87.421875-45.63037109 86.60203125-45.22753906 85.7821875-44.8125 84.9375-44.42126953 84.12539062-44.03003906 83.31328125-43.62695312 82.4765625c1.48804651-3.07973806 2.98287133-6.15404921 4.54638671-9.19628906C-37.35389762 69.91812423-35.79432282 66.56321047-34.42578125 63.0390625-31.06119644 54.44632958-27.11915997 46.09069224-23.3125 37.6875c1.57027085-3.47078555 3.13906321-6.94223608 4.70703125-10.4140625C-18.22574921 26.43367371-17.84602966 25.59390991-17.45480347 24.72869873c2.79794821-6.20059747 5.53869159-12.4246724 8.22062683-18.67636108C-6.76291797.33468549-6.2733019.13332521.0.0z"
          fill="#fcfdfe" transform="translate(86.125,50.6875)"/>
    <path d="M0 0C5.49110072-.07550699 10.98188377-.12922511 16.47338867-.16479492c1.85877765-.01486511 3.71752171-.03516313 5.57617188-.06152344C56.20891765-.69780069 56.20891765-.69780069 69 7 69.88558594 7.51433594 69.88558594 7.51433594 70.7890625 8.0390625 73.62173603 9.79773659 75.12383176 11.18574763 77 14c.265625 2.92578125.265625 2.92578125.25 6.3125C77.25773437 21.97732422 77.25773437 21.97732422 77.265625 23.67578125 77 27 77 27 75 33c-11.55.0-23.1.0-35 0C40.33 31.02 40.66 29.04 41 27 41.92939473 18.83651171 41.92939473 18.83651171 39 11.5 30.21072208 4.17560173 20.01523416 2.92347445 8.9375 1.875c-.86560547-.08636719-1.73121094-.17273437-2.62304688-.26171875C4.21011156 1.40400971 2.10511876 1.20130332.0 1 0 .67.0.34.0.0z"
          fill="#f8fafe" transform="translate(83,45)"/>
</svg>
